<mxfile host="Electron" agent="Mozilla/5.0 (Macintosh; Intel Mac OS X 10_15_7) AppleWebKit/537.36 (KHTML, like Gecko) draw.io/28.1.2 Chrome/138.0.7204.243 Electron/37.4.0 Safari/537.36" version="28.1.2">
  <diagram name="Page-1" id="jDkHC8SVvuOtB-JcW1n-">
    <mxGraphModel dx="976" dy="755" grid="1" gridSize="10" guides="1" tooltips="1" connect="1" arrows="1" fold="1" page="1" pageScale="1" pageWidth="827" pageHeight="1169" math="0" shadow="0">
      <root>
        <mxCell id="0" />
        <mxCell id="1" parent="0" />
        <mxCell id="PJuqwHDrscmXMJVCyzw3-33" value="" style="rounded=0;whiteSpace=wrap;html=1;gradientColor=#FFEEF4;" vertex="1" parent="1">
          <mxGeometry x="610" y="270" width="240" height="320" as="geometry" />
        </mxCell>
        <mxCell id="PJuqwHDrscmXMJVCyzw3-31" value="" style="rounded=0;whiteSpace=wrap;html=1;gradientColor=#E4ECFF;" vertex="1" parent="1">
          <mxGeometry x="50" y="270" width="540" height="320" as="geometry" />
        </mxCell>
        <mxCell id="PJuqwHDrscmXMJVCyzw3-27" style="edgeStyle=orthogonalEdgeStyle;rounded=0;orthogonalLoop=1;jettySize=auto;html=1;endArrow=block;endFill=0;" edge="1" parent="1" source="PJuqwHDrscmXMJVCyzw3-10" target="PJuqwHDrscmXMJVCyzw3-13">
          <mxGeometry relative="1" as="geometry">
            <Array as="points">
              <mxPoint x="320" y="346" />
              <mxPoint x="320" y="410" />
            </Array>
          </mxGeometry>
        </mxCell>
        <mxCell id="PJuqwHDrscmXMJVCyzw3-10" value="&lt;p style=&quot;margin:0px;margin-top:4px;text-align:center;text-decoration:underline;&quot;&gt;&lt;b&gt;ConfigItem&lt;/b&gt;&lt;/p&gt;&lt;hr size=&quot;1&quot; style=&quot;border-style:solid;&quot;&gt;&lt;p style=&quot;margin:0px;margin-left:8px;&quot;&gt;config: Config&lt;/p&gt;" style="verticalAlign=top;align=left;overflow=fill;html=1;whiteSpace=wrap;" vertex="1" parent="1">
          <mxGeometry x="360" y="320" width="204" height="51.25" as="geometry" />
        </mxCell>
        <mxCell id="PJuqwHDrscmXMJVCyzw3-11" value="&lt;p style=&quot;margin:0px;margin-top:4px;text-align:center;text-decoration:underline;&quot;&gt;&lt;b&gt;Config&lt;/b&gt;&lt;/p&gt;&lt;hr size=&quot;1&quot; style=&quot;border-style:solid;&quot;&gt;&lt;p style=&quot;margin:0px;margin-left:8px;&quot;&gt;&lt;br&gt;&lt;/p&gt;" style="verticalAlign=top;align=left;overflow=fill;html=1;whiteSpace=wrap;" vertex="1" parent="1">
          <mxGeometry x="637" y="346.25" width="190" height="24" as="geometry" />
        </mxCell>
        <mxCell id="PJuqwHDrscmXMJVCyzw3-30" style="edgeStyle=orthogonalEdgeStyle;rounded=0;orthogonalLoop=1;jettySize=auto;html=1;exitX=1;exitY=0.75;exitDx=0;exitDy=0;endArrow=none;endFill=0;startArrow=diamond;startFill=0;" edge="1" parent="1" source="PJuqwHDrscmXMJVCyzw3-12" target="PJuqwHDrscmXMJVCyzw3-17">
          <mxGeometry relative="1" as="geometry">
            <Array as="points">
              <mxPoint x="630" y="447" />
              <mxPoint x="630" y="447" />
            </Array>
          </mxGeometry>
        </mxCell>
        <mxCell id="PJuqwHDrscmXMJVCyzw3-12" value="&lt;p style=&quot;margin:0px;margin-top:4px;text-align:center;text-decoration:underline;&quot;&gt;&lt;b&gt;ConfigChangeItem&lt;/b&gt;&lt;/p&gt;&lt;hr size=&quot;1&quot; style=&quot;border-style:solid;&quot;&gt;&lt;p style=&quot;margin:0px;margin-left:8px;&quot;&gt;pathChanges: ConfigPathChange[]&lt;/p&gt;" style="verticalAlign=top;align=left;overflow=fill;html=1;whiteSpace=wrap;" vertex="1" parent="1">
          <mxGeometry x="360" y="407" width="204" height="53" as="geometry" />
        </mxCell>
        <mxCell id="PJuqwHDrscmXMJVCyzw3-13" value="&lt;p style=&quot;margin:0px;margin-top:4px;text-align:center;text-decoration:underline;&quot;&gt;&lt;b&gt;ConfigTableItem&lt;/b&gt;&lt;/p&gt;&lt;hr size=&quot;1&quot; style=&quot;border-style:solid;&quot;&gt;&lt;p style=&quot;margin:0px;margin-left:8px;&quot;&gt;pk: string&lt;/p&gt;&lt;p style=&quot;margin:0px;margin-left:8px;&quot;&gt;sk: string&lt;/p&gt;&lt;p style=&quot;margin:0px;margin-left:8px;&quot;&gt;entityType: CONFIG&lt;/p&gt;&lt;p style=&quot;margin:0px;margin-left:8px;&quot;&gt;&amp;nbsp; &amp;nbsp; | CONFIG_CHANGE&lt;/p&gt;&lt;p style=&quot;margin:0px;margin-left:8px;&quot;&gt;&amp;nbsp; &amp;nbsp; | CONFIG_PATH_CHANGE&lt;/p&gt;&lt;p style=&quot;margin:0px;margin-left:8px;&quot;&gt;configId: string&lt;/p&gt;&lt;p style=&quot;margin:0px;margin-left:8px;&quot;&gt;timestamp: string&lt;/p&gt;&lt;p style=&quot;margin:0px;margin-left:8px;&quot;&gt;&lt;br&gt;&lt;/p&gt;" style="verticalAlign=top;align=left;overflow=fill;html=1;whiteSpace=wrap;" vertex="1" parent="1">
          <mxGeometry x="70" y="320" width="210" height="140" as="geometry" />
        </mxCell>
        <mxCell id="PJuqwHDrscmXMJVCyzw3-17" value="&lt;p style=&quot;margin:0px;margin-top:4px;text-align:center;text-decoration:underline;&quot;&gt;&lt;b&gt;ConfigPathChange&lt;/b&gt;&lt;/p&gt;&lt;hr size=&quot;1&quot; style=&quot;border-style:solid;&quot;&gt;&lt;p style=&quot;margin:0px;margin-left:8px;&quot;&gt;type: ADD | UPDATE | REMOVE&lt;/p&gt;&lt;p style=&quot;margin:0px;margin-left:8px;&quot;&gt;path: string&lt;/p&gt;&lt;p style=&quot;margin:0px;margin-left:8px;&quot;&gt;oldValue?: any&lt;/p&gt;&lt;p style=&quot;margin:0px;margin-left:8px;&quot;&gt;newValue?: any&lt;/p&gt;" style="verticalAlign=top;align=left;overflow=fill;html=1;whiteSpace=wrap;" vertex="1" parent="1">
          <mxGeometry x="637" y="430" width="190" height="100" as="geometry" />
        </mxCell>
        <mxCell id="PJuqwHDrscmXMJVCyzw3-20" style="edgeStyle=orthogonalEdgeStyle;rounded=0;orthogonalLoop=1;jettySize=auto;html=1;endArrow=block;endFill=0;" edge="1" parent="1" source="PJuqwHDrscmXMJVCyzw3-18" target="PJuqwHDrscmXMJVCyzw3-13">
          <mxGeometry relative="1" as="geometry">
            <Array as="points">
              <mxPoint x="320" y="512" />
              <mxPoint x="320" y="430" />
            </Array>
          </mxGeometry>
        </mxCell>
        <mxCell id="PJuqwHDrscmXMJVCyzw3-21" style="edgeStyle=orthogonalEdgeStyle;rounded=0;orthogonalLoop=1;jettySize=auto;html=1;endArrow=block;endFill=0;" edge="1" parent="1" source="PJuqwHDrscmXMJVCyzw3-18" target="PJuqwHDrscmXMJVCyzw3-17">
          <mxGeometry relative="1" as="geometry">
            <Array as="points">
              <mxPoint x="620" y="512" />
              <mxPoint x="620" y="512" />
            </Array>
          </mxGeometry>
        </mxCell>
        <mxCell id="PJuqwHDrscmXMJVCyzw3-18" value="&lt;p style=&quot;margin:0px;margin-top:4px;text-align:center;text-decoration:underline;&quot;&gt;&lt;b&gt;ConfigPathChangeItem&lt;/b&gt;&lt;/p&gt;&lt;hr size=&quot;1&quot; style=&quot;border-style:solid;&quot;&gt;&lt;p style=&quot;margin:0px;margin-left:8px;&quot;&gt;&lt;br&gt;&lt;/p&gt;" style="verticalAlign=top;align=left;overflow=fill;html=1;whiteSpace=wrap;" vertex="1" parent="1">
          <mxGeometry x="360" y="500" width="204" height="24" as="geometry" />
        </mxCell>
        <mxCell id="PJuqwHDrscmXMJVCyzw3-23" style="edgeStyle=orthogonalEdgeStyle;rounded=0;orthogonalLoop=1;jettySize=auto;html=1;exitX=0;exitY=0.25;exitDx=0;exitDy=0;endArrow=block;endFill=0;" edge="1" parent="1" source="PJuqwHDrscmXMJVCyzw3-12" target="PJuqwHDrscmXMJVCyzw3-13">
          <mxGeometry relative="1" as="geometry">
            <Array as="points">
              <mxPoint x="300" y="420" />
              <mxPoint x="300" y="420" />
            </Array>
          </mxGeometry>
        </mxCell>
        <mxCell id="PJuqwHDrscmXMJVCyzw3-25" style="edgeStyle=orthogonalEdgeStyle;rounded=0;orthogonalLoop=1;jettySize=auto;html=1;exitX=1;exitY=0.75;exitDx=0;exitDy=0;endArrow=none;endFill=0;startArrow=diamond;startFill=1;" edge="1" parent="1" source="PJuqwHDrscmXMJVCyzw3-10" target="PJuqwHDrscmXMJVCyzw3-11">
          <mxGeometry relative="1" as="geometry">
            <mxPoint x="640" y="360" as="targetPoint" />
          </mxGeometry>
        </mxCell>
        <mxCell id="PJuqwHDrscmXMJVCyzw3-34" value="Database model" style="text;html=1;align=center;verticalAlign=middle;resizable=0;points=[];autosize=1;strokeColor=none;fillColor=none;fontStyle=1" vertex="1" parent="1">
          <mxGeometry x="265" y="560" width="110" height="30" as="geometry" />
        </mxCell>
        <mxCell id="PJuqwHDrscmXMJVCyzw3-35" value="Domain model" style="text;html=1;align=center;verticalAlign=middle;resizable=0;points=[];autosize=1;strokeColor=none;fillColor=none;fontStyle=1" vertex="1" parent="1">
          <mxGeometry x="680" y="560" width="100" height="30" as="geometry" />
        </mxCell>
      </root>
    </mxGraphModel>
  </diagram>
</mxfile>
